<svg width="60" height="60" viewBox="0 0 60 60" fill="none" xmlns="http://www.w3.org/2000/svg">
<g clip-path="url(#clip0)">
<rect x="0.5" y="0.584961" width="59" height="59" rx="3.5" stroke="#D4DCE3"/>
<path d="M51.7939 27.8202C50.8233 27.8202 49.9976 28.4506 49.7033 29.3232H43.4606C43.1057 22.4494 37.577 16.9208 30.7031 16.5657V10.3231C31.5758 10.0288 32.2061 9.20318 32.2061 8.23249C32.2061 7.01609 31.2165 6.02637 30 6.02637C28.7835 6.02637 27.7939 7.01609 27.7939 8.23249C27.7939 9.20318 28.4242 10.0287 29.2969 10.3231V16.5657C22.423 16.9207 16.8944 22.4494 16.5394 29.3232H10.2968C10.0025 28.4506 9.17681 27.8202 8.20613 27.8202C6.98972 27.8202 6 28.8099 6 30.0264C6 31.2429 6.98972 32.2325 8.20613 32.2325C9.17681 32.2325 10.0024 31.6021 10.2968 30.7295H16.5394C16.8943 37.6033 22.423 43.132 29.2969 43.487V49.7296C28.4242 50.0239 27.7939 50.8496 27.7939 51.8202C27.7939 53.0366 28.7835 54.0264 30 54.0264C31.2165 54.0264 32.2061 53.0366 32.2061 51.8202C32.2061 50.8496 31.5758 50.024 30.7031 49.7296V43.487C37.577 43.1321 43.1056 37.6033 43.4606 30.7295H49.7033C49.9975 31.6021 50.8232 32.2325 51.7939 32.2325C53.0103 32.2325 54 31.2429 54 30.0264C54 28.8099 53.0103 27.8202 51.7939 27.8202ZM8.20613 30.8262C7.76503 30.8262 7.40625 30.4674 7.40625 30.0264C7.40625 29.5854 7.76512 29.2265 8.20613 29.2265C8.64713 29.2265 9.006 29.5854 9.006 30.0264C9.006 30.4674 8.64722 30.8262 8.20613 30.8262ZM29.2001 8.23249C29.2001 7.79149 29.5589 7.43262 30 7.43262C30.4411 7.43262 30.7999 7.79149 30.7999 8.23249C30.7999 8.67349 30.441 9.03237 30 9.03237C29.559 9.03237 29.2001 8.67349 29.2001 8.23249ZM30.7999 51.8202C30.7999 52.2612 30.4411 52.6201 30 52.6201C29.5589 52.6201 29.2001 52.2612 29.2001 51.8202C29.2001 51.3792 29.559 51.0204 30 51.0204C30.441 51.0204 30.7999 51.3792 30.7999 51.8202ZM30 42.0989C23.3432 42.0989 17.9274 36.6832 17.9274 30.0264C17.9274 23.3696 23.3432 17.9538 30 17.9538C36.6568 17.9538 42.0726 23.3696 42.0726 30.0264C42.0726 36.6832 36.6568 42.0989 30 42.0989ZM51.7939 30.8262C51.3528 30.8262 50.994 30.4674 50.994 30.0264C50.994 29.5854 51.3529 29.2265 51.7939 29.2265C52.2349 29.2265 52.5938 29.5853 52.5938 30.0264C52.5938 30.4675 52.2349 30.8262 51.7939 30.8262Z" fill="#0A5089"/>
<path d="M35.3287 31.6729L32.9885 30.7368C32.9699 30.7294 32.958 30.7118 32.958 30.6919V29.275C32.958 29.2689 32.9572 29.2629 32.9571 29.2569C33.4289 28.6347 33.7095 27.8598 33.7095 27.0205V24.766C33.7095 23.1351 32.0455 21.8083 30.0004 21.8083C27.9552 21.8083 26.2912 23.1351 26.2912 24.766V27.0205C26.2912 27.8598 26.5718 28.6347 27.0437 29.2569C27.0435 29.263 27.0427 29.2689 27.0427 29.275V30.6919C27.0427 30.7118 27.0308 30.7294 27.0123 30.7368L24.672 31.6729C23.8296 32.0098 23.2852 32.8139 23.2852 33.7213V36.0385C23.2852 36.8406 23.9377 37.4931 24.7398 37.4931H30.7517C31.14 37.4931 31.4548 37.1783 31.4548 36.79C31.4548 36.4017 31.14 36.0869 30.7517 36.0869H24.7398C24.7131 36.0869 24.6914 36.0652 24.6914 36.0385V33.7213C24.6914 33.3923 24.8887 33.1007 25.1943 32.9786L27.5347 32.0425C28.0901 31.8202 28.449 31.2901 28.449 30.6919V30.3883C28.9214 30.6067 29.4467 30.7296 30.0004 30.7296C30.5541 30.7296 31.0794 30.6068 31.5517 30.3883V30.6919C31.5517 31.2901 31.9106 31.8203 32.4661 32.0425L34.8065 32.9787C35.1119 33.1008 35.3092 33.3923 35.3092 33.7213V36.0385C35.3092 36.0652 35.2876 36.0869 35.2609 36.0869H33.7577C33.3694 36.0869 33.0546 36.4017 33.0546 36.79C33.0546 37.1783 33.3694 37.4931 33.7577 37.4931H35.2609C36.063 37.4931 36.7155 36.8406 36.7155 36.0385V33.7213C36.7156 32.8138 36.1712 32.0098 35.3287 31.6729ZM32.3032 27.0204C32.3032 28.2902 31.2701 29.3233 30.0004 29.3233C28.7306 29.3233 27.6975 28.2901 27.6975 27.0204V24.7659C27.6975 23.9249 28.7521 23.2145 30.0004 23.2145C31.2487 23.2145 32.3032 23.9249 32.3032 24.7659V27.0204Z" fill="#A039C7"/>
<path d="M27.6841 14.4049C27.6105 14.0236 27.2416 13.7744 26.8604 13.8478C23.6294 14.4715 20.6858 16.0367 18.3482 18.3745C16.0105 20.7121 14.4452 23.6556 13.8214 26.8867C13.7479 27.268 13.9973 27.6368 14.3786 27.7104C14.4236 27.719 14.4684 27.7232 14.5127 27.7232C14.8428 27.7232 15.1374 27.4895 15.2023 27.1532C15.7726 24.199 17.2042 21.5072 19.3426 19.3689C21.4809 17.2305 24.1727 15.7989 27.1269 15.2286C27.5082 15.155 27.7577 14.7862 27.6841 14.4049Z" fill="#0A5089"/>
<path d="M46.1802 26.8876C45.5564 23.6565 43.9911 20.7131 41.6534 18.3754C39.3158 16.0376 36.3722 14.4724 33.1412 13.8487C32.7599 13.7756 32.3912 14.0246 32.3175 14.4058C32.244 14.7871 32.4934 15.1559 32.8747 15.2295C35.8289 15.7998 38.5207 17.2315 40.659 19.3698C42.7974 21.5081 44.229 24.1999 44.7993 27.1541C44.8642 27.4904 45.1588 27.7241 45.4889 27.7241C45.5331 27.7241 45.578 27.7199 45.623 27.7113C46.0043 27.6377 46.2537 27.2689 46.1802 26.8876Z" fill="#0A5089"/>
<path d="M27.1269 44.8234C24.1727 44.2532 21.4809 42.8215 19.3426 40.6832C17.2042 38.5448 15.7726 35.8531 15.2023 32.8988C15.1287 32.5176 14.7596 32.2683 14.3786 32.3417C13.9973 32.4153 13.7479 32.7841 13.8215 33.1654C14.4452 36.3964 16.0105 39.3398 18.3482 41.6776C20.6859 44.0152 23.6294 45.5806 26.8604 46.2043C26.9054 46.2129 26.9502 46.2171 26.9945 46.2171C27.3247 46.2171 27.6192 45.9834 27.6841 45.6471C27.7576 45.2659 27.5082 44.897 27.1269 44.8234Z" fill="#0A5089"/>
<path d="M45.623 32.3413C45.2417 32.2683 44.873 32.5171 44.7993 32.8985C44.2291 35.8527 42.7974 38.5445 40.6591 40.6828C38.5207 42.8212 35.829 44.2528 32.8747 44.8231C32.4934 44.8967 32.244 45.2655 32.3176 45.6468C32.3824 45.9831 32.677 46.2168 33.0072 46.2168C33.0513 46.2168 33.0962 46.2126 33.1412 46.204C36.3722 45.5802 39.3157 44.0149 41.6535 41.6772C43.9911 39.3395 45.5565 36.396 46.1802 33.165C46.2537 32.7837 46.0043 32.4149 45.623 32.3413Z" fill="#0A5089"/>
</g>
<defs>
<clipPath id="clip0">
<rect width="60" height="60" fill="white"/>
</clipPath>
</defs>
</svg>
