<svg width="268" height="71" viewBox="0 0 268 71" fill="none" xmlns="http://www.w3.org/2000/svg">
<path d="M0 50.18L5.29385 41.7216C10.1293 45.6403 15.5119 47.4887 21.205 47.4887C26.0404 47.4887 29.6485 45.4185 29.6485 41.0414C29.6485 36.7383 26.5728 34.816 18.5137 32.5831C9.37514 30.0545 2.21809 26.5203 2.21809 17.0564C2.21809 7.53343 10.0554 1.30798 21.6634 1.30798C29.5746 1.30798 35.4895 3.54086 39.7187 6.83843L34.8832 14.8236C31.2012 12.1323 27.0459 10.5205 21.5894 10.5205C16.6653 10.5205 12.9832 12.3689 12.9832 16.3614C12.9832 20.2801 16.5174 21.5074 23.9702 23.7403C33.1087 26.4316 40.1771 29.9657 40.1771 40.3316C40.1771 50.4018 32.5764 56.7012 21.0423 56.7012C12.0516 56.7012 5.36779 54.3204 0 50.18Z" fill="#033156"/>
<path d="M67.829 56.0209L54.2247 41.4258V56.0209H44.1545V1.16003H54.2247V34.8159L67.06 20.6793H79.7328L63.6885 37.4185L80.9749 56.0061H67.829V56.0209Z" fill="#033156"/>
<path d="M79.5837 8.22818C79.5837 4.45742 82.4229 1.92879 86.1197 1.85486C89.8905 1.85486 92.8036 4.47221 92.8036 8.22818C92.8036 11.9841 89.8905 14.6015 86.1197 14.6015C82.4229 14.6015 79.5837 11.9841 79.5837 8.22818ZM81.2695 20.6791H91.3396V56.0207H81.2695V20.6791Z" fill="#033156"/>
<path d="M97.0923 1.16003H107.162V56.0209H97.0923V1.16003Z" fill="#033156"/>
<path d="M113.003 1.16003H123.073V56.0209H113.003V1.16003Z" fill="#033156"/>
<path d="M132.434 29.1225H125.75V20.6642H132.434V16.509C132.434 6.67544 138.201 0.523926 148.182 0.523926C152.87 0.523926 155.783 2.13574 157.484 3.28915L153.639 10.8159C152.944 10.4314 151.716 9.66247 149.336 9.66247C145.875 9.66247 142.504 11.7327 142.504 17.0413V20.6494H155.487V29.1077H142.504V55.991H132.434V29.1225Z" fill="#033156"/>
<path d="M190.593 20.6791V56.0207H182.534L182.224 51.4071C180.153 54.4828 176.309 56.7009 171.384 56.7009C161.861 56.7009 155.089 50.091 155.089 40.1835V20.6643H165.159V38.1872C165.159 43.4959 168.235 47.03 172.612 47.03C177.61 47.03 180.523 43.1853 180.523 38.4978V20.6791H190.593Z" fill="#033156"/>
<path d="M196.286 1.21863H200.427V56.0795H196.286V1.21863Z" fill="#0A5089"/>
<path d="M200.235 1.16003H206.416V56.0209H200.235V1.16003Z" fill="#033156"/>
<path d="M253.942 54.5569L247.184 71.0003H237.277L243.192 55.9469L228.138 20.6792H239.436L248.5 44.5015L257.417 20.6792H267.783L253.942 54.5569Z" fill="#033156"/>
<path d="M206.418 52.1614V56.0208H205.486L201.878 51.6438L202.514 51.8065L206.418 52.1614Z" fill="black"/>
<path d="M206.418 41.2043V46.1729L201.878 40.6868L202.514 40.8494L206.418 41.2043Z" fill="black"/>
<path d="M206.418 30.2314V35.1852L201.878 29.6991L202.514 29.8765L206.418 30.2314Z" fill="black"/>
<path d="M206.418 19.2596V24.2281L201.878 18.7421L202.514 18.9047L206.418 19.2596Z" fill="black"/>
<path d="M206.418 8.28759V13.2561L201.878 7.75525L202.514 7.9327L206.418 8.28759Z" fill="black"/>
<path d="M203.326 8.48182C204.338 8.48182 205.159 7.66088 205.159 6.6482C205.159 5.63552 204.338 4.81458 203.326 4.81458C202.313 4.81458 201.492 5.63552 201.492 6.6482C201.492 7.66088 202.313 8.48182 203.326 8.48182Z" fill="#A039C7"/>
<path d="M223.539 8.47987C224.552 8.47987 225.373 7.65893 225.373 6.64625C225.373 5.63356 224.552 4.81262 223.539 4.81262C222.527 4.81262 221.706 5.63356 221.706 6.64625C221.706 7.65893 222.527 8.47987 223.539 8.47987Z" fill="#A039C7"/>
<path d="M223.539 4.79773H203.325V8.47976H223.539V4.79773Z" fill="#A039C7"/>
<path d="M203.326 19.455C204.338 19.455 205.159 18.634 205.159 17.6213C205.159 16.6087 204.338 15.7877 203.326 15.7877C202.313 15.7877 201.492 16.6087 201.492 17.6213C201.492 18.634 202.313 19.455 203.326 19.455Z" fill="#FCC000"/>
<path d="M223.54 19.4515C224.553 19.4515 225.374 18.6306 225.374 17.6179C225.374 16.6052 224.553 15.7843 223.54 15.7843C222.528 15.7843 221.707 16.6052 221.707 17.6179C221.707 18.6306 222.528 19.4515 223.54 19.4515Z" fill="#FCC000"/>
<path d="M223.541 15.7694H203.327V19.4514H223.541V15.7694Z" fill="#FCC000"/>
<path d="M203.326 30.4266C204.338 30.4266 205.159 29.6057 205.159 28.593C205.159 27.5803 204.338 26.7594 203.326 26.7594C202.313 26.7594 201.492 27.5803 201.492 28.593C201.492 29.6057 202.313 30.4266 203.326 30.4266Z" fill="#00CC78"/>
<path d="M223.541 30.4236C224.554 30.4236 225.375 29.6027 225.375 28.59C225.375 27.5773 224.554 26.7563 223.541 26.7563C222.528 26.7563 221.707 27.5773 221.707 28.59C221.707 29.6027 222.528 30.4236 223.541 30.4236Z" fill="#00CC78"/>
<path d="M223.54 26.7415H203.326V30.4235H223.54V26.7415Z" fill="#00CC78"/>
<path d="M203.326 41.3997C204.338 41.3997 205.159 40.5787 205.159 39.566C205.159 38.5534 204.338 37.7324 203.326 37.7324C202.313 37.7324 201.492 38.5534 201.492 39.566C201.492 40.5787 202.313 41.3997 203.326 41.3997Z" fill="#00B5EF"/>
<path d="M223.541 41.3967C224.554 41.3967 225.375 40.5758 225.375 39.5631C225.375 38.5504 224.554 37.7295 223.541 37.7295C222.528 37.7295 221.707 38.5504 221.707 39.5631C221.707 40.5758 222.528 41.3967 223.541 41.3967Z" fill="#00B5EF"/>
<path d="M223.541 37.7146H203.327V41.3966H223.541V37.7146Z" fill="#00B5EF"/>
<path d="M203.326 52.3713C204.338 52.3713 205.159 51.5504 205.159 50.5377C205.159 49.525 204.338 48.7041 203.326 48.7041C202.313 48.7041 201.492 49.525 201.492 50.5377C201.492 51.5504 202.313 52.3713 203.326 52.3713Z" fill="#FF1A40"/>
<path d="M223.541 52.3684C224.554 52.3684 225.375 51.5475 225.375 50.5348C225.375 49.5221 224.554 48.7012 223.541 48.7012C222.528 48.7012 221.707 49.5221 221.707 50.5348C221.707 51.5475 222.528 52.3684 223.541 52.3684Z" fill="#FF1A40"/>
<path d="M223.54 48.6863H203.326V52.3683H223.54V48.6863Z" fill="#FF1A40"/>
<path d="M216.691 1.21863H220.98V56.0795H216.691V1.21863Z" fill="#0A5089"/>
<path d="M220.507 1.16003H226.599V56.0209H220.507V1.16003Z" fill="#033156"/>
</svg>
